<svg xmlns="http://www.w3.org/2000/svg" xmlns:xlink="http://www.w3.org/1999/xlink" viewBox="0 0 37 35" xmlns:v="https://vecta.io/nano"><linearGradient id="A" gradientUnits="userSpaceOnUse" x1=".5" y1="12.984" x2="36.5" y2="12.984"><stop offset="0" stop-color="#ad5388"/><stop offset="1" stop-color="#432f90"/></linearGradient><path d="M35.9 0H1.1a.65.65 0 0 0-.6.6v20.3a.65.65 0 0 0 .6.6h1.7v3.4H4v-4.5c0-1.5 1.2-2.7 2.6-2.8l-.8 2c-.1.1-.1.3 0 .4L7 23.4c.1.2.3.4.6.4.2 0 .5-.2.6-.4L9.4 20v-.4l-.8-2h1.9c.2 0 .5-.1.6-.2l4.6-3 .5.8-4.8 3.3c-.5.3-.7.8-.7 1.4V26h1.2v-4.5h24.4a.65.65 0 0 0 .6-.6V.6c-.4-.3-.7-.6-1-.6zM7.5 21.4L7 19.8l.5-1.3.5 1.3-.5 1.6zm0-5c-1.2 0-2.2-.9-2.3-2.1.7-.5 1.5-.7 2.3-.7s1.6.3 2.3.7c-.1 1.1-1.1 2.1-2.3 2.1zm-1.9-3.7c.4-.5 1.1-.9 1.8-.9s1.4.4 1.8.9c-.6-.2-1.2-.3-1.8-.3s-1.2.1-1.8.3zm29.7 7.6H11.5v-.5c0-.2.1-.4.2-.5l4.8-3.3c.5-.3.6-1 .3-1.5l4.8-3.4-.7-.9-4.7 3.3c-.4-.4-1-.5-1.5-.2l-4.6 3H10c.6-.6.9-1.4.9-2.3 0-1.9-1.6-3.4-3.5-3.4S4 12.2 4 14.1a3.32 3.32 0 0 0 1.3 2.6c-1.4.6-2.4 2-2.4 3.6H1.7V1.1h33.7v19.2z" fill="url(#A)"/><linearGradient id="B" gradientUnits="userSpaceOnUse" x1=".5" y1="30.202" x2="8.629" y2="30.202"><stop offset="0" stop-color="#ad5388"/><stop offset="1" stop-color="#432f90"/></linearGradient><path d="M6.2 30.5c.8-.5 1.3-1.3 1.3-2.3 0-1.6-1.3-2.8-2.9-2.8s-2.9 1.3-2.9 2.8c0 1 .5 1.8 1.3 2.3-1.4.5-2.4 1.8-2.4 3.3V35h1.2v-1.1c0-1.2.9-2.2 2.2-2.4h1.5a2.48 2.48 0 0 1 2.2 2.4V35h1.2v-1.1c-.3-1.6-1.3-2.9-2.7-3.4zm-1.6-.6c-1 0-1.7-.8-1.7-1.7s.8-1.7 1.7-1.7 1.7.8 1.7 1.7c0 1-.8 1.7-1.7 1.7z" fill="url(#B)"/><linearGradient id="C" gradientUnits="userSpaceOnUse" x1="9.79" y1="30.202" x2="17.919" y2="30.202"><stop offset="0" stop-color="#ad5388"/><stop offset="1" stop-color="#432f90"/></linearGradient><path d="M15.5 30.5c.8-.5 1.3-1.4 1.3-2.3 0-1.6-1.3-2.8-2.9-2.8S11 26.7 11 28.2c0 1 .5 1.8 1.3 2.3-1.4.5-2.4 1.8-2.4 3.3V35H11v-1.1c0-1.2.9-2.2 2.2-2.4h1.5a2.48 2.48 0 0 1 2.2 2.4V35h1.2v-1.1c-.2-1.6-1.2-2.9-2.6-3.4zm-1.6-.6c-1 0-1.7-.8-1.7-1.7s.8-1.7 1.7-1.7 1.7.8 1.7 1.7c0 1-.8 1.7-1.7 1.7z" fill="url(#C)"/><linearGradient id="D" gradientUnits="userSpaceOnUse" x1="19.081" y1="30.202" x2="27.21" y2="30.202"><stop offset="0" stop-color="#ad5388"/><stop offset="1" stop-color="#432f90"/></linearGradient><use xlink:href="#S" fill="url(#D)"/><linearGradient id="E" gradientUnits="userSpaceOnUse" x1="19.071" y1="30.202" x2="27.2" y2="30.202"><stop offset="0" stop-color="#ad5388"/><stop offset="1" stop-color="#432f90"/></linearGradient><use xlink:href="#S" x="9.3" fill="url(#E)"/><linearGradient id="F" gradientUnits="userSpaceOnUse" x1="29.532" y1="3.952" x2="34.178" y2="3.952"><stop offset="0" stop-color="#ad5388"/><stop offset="1" stop-color="#432f90"/></linearGradient><path d="M30.4 4.6l-.2.9c0 .2.1.4.2.6s.4.1.6 0l.8-.4.8.4c.1 0 .2.1.3.1s.2 0 .3-.1c.2-.1.3-.3.2-.6l-.2-.9.8-.7a.47.47 0 0 0 .1-.6c0-.1-.2-.3-.4-.3l-.9-.1-.4-.9a.55.55 0 0 0-.5-.3.55.55 0 0 0-.5.3l-.4.8-1 .2c-.2 0-.4.2-.5.4s0 .4.1.6l.8.6zm1-.7c.2 0 .4-.1.4-.3h0 0c.1.2.2.3.4.3h.1V4c-.1.1-.2.3-.2.5v.1h0c-.1 0-.2-.1-.3-.1s-.2 0-.3.1h0v-.1c.1-.2 0-.3-.1-.6h0 0z" fill="url(#F)"/><linearGradient id="G" gradientUnits="userSpaceOnUse" x1="21.984" y1="9.597" x2="25.468" y2="9.597"><stop offset="0" stop-color="#ad5388"/><stop offset="1" stop-color="#432f90"/></linearGradient><path d="M23.7 11.3c1 0 1.7-.8 1.7-1.7s-.8-1.7-1.7-1.7c-1 0-1.7.8-1.7 1.7s.8 1.7 1.7 1.7zm0-2.3a.65.65 0 0 1 .6.6.65.65 0 0 1-.6.6.65.65 0 0 1-.6-.6.65.65 0 0 1 .6-.6z" fill="url(#G)"/><linearGradient id="H" gradientUnits="userSpaceOnUse" x1="3.403" y1="2.823" x2="7.468" y2="2.823"><stop offset="0" stop-color="#ad5388"/><stop offset="1" stop-color="#432f90"/></linearGradient><path d="M3.4 2.3h4.1v1.1H3.4z" fill="url(#H)"/><linearGradient id="I" gradientUnits="userSpaceOnUse" x1="8.629" y1="2.823" x2="15.597" y2="2.823"><stop offset="0" stop-color="#ad5388"/><stop offset="1" stop-color="#432f90"/></linearGradient><path d="M8.6 2.3h7v1.1h-7z" fill="url(#I)"/><linearGradient id="J" gradientUnits="userSpaceOnUse" x1="3.403" y1="5.081" x2="4.565" y2="5.081"><stop offset="0" stop-color="#ad5388"/><stop offset="1" stop-color="#432f90"/></linearGradient><path d="M3.4 4.5h1.2v1.1H3.4z" fill="url(#J)"/><linearGradient id="K" gradientUnits="userSpaceOnUse" x1="3.403" y1="7.339" x2="10.371" y2="7.339"><stop offset="0" stop-color="#ad5388"/><stop offset="1" stop-color="#432f90"/></linearGradient><path d="M3.4 6.8h7v1.1h-7z" fill="url(#K)"/><linearGradient id="L" gradientUnits="userSpaceOnUse" x1="5.726" y1="5.081" x2="15.597" y2="5.081"><stop offset="0" stop-color="#ad5388"/><stop offset="1" stop-color="#432f90"/></linearGradient><path d="M5.7 4.5h9.9v1.1H5.7z" fill="url(#L)"/><linearGradient id="M" gradientUnits="userSpaceOnUse" x1="11.532" y1="7.339" x2="15.597" y2="7.339"><stop offset="0" stop-color="#ad5388"/><stop offset="1" stop-color="#432f90"/></linearGradient><path d="M11.5 6.8h4.1v1.1h-4.1z" fill="url(#M)"/><linearGradient id="N" gradientUnits="userSpaceOnUse" x1="31.274" y1="7.339" x2="32.435" y2="7.339"><stop offset="0" stop-color="#ad5388"/><stop offset="1" stop-color="#432f90"/></linearGradient><path d="M31.3 6.8h1.2v1.1h-1.2z" fill="url(#N)"/><linearGradient id="O" gradientUnits="userSpaceOnUse" x1="31.274" y1="9.597" x2="32.435" y2="9.597"><stop offset="0" stop-color="#ad5388"/><stop offset="1" stop-color="#432f90"/></linearGradient><path d="M31.3 9h1.2v1.1h-1.2z" fill="url(#O)"/><linearGradient id="P" gradientUnits="userSpaceOnUse" x1="28.952" y1="9.597" x2="30.113" y2="9.597"><stop offset="0" stop-color="#ad5388"/><stop offset="1" stop-color="#432f90"/></linearGradient><path d="M29 9h1.2v1.1H29z" fill="url(#P)"/><linearGradient id="Q" gradientUnits="userSpaceOnUse" x1="26.629" y1="9.597" x2="27.79" y2="9.597"><stop offset="0" stop-color="#ad5388"/><stop offset="1" stop-color="#432f90"/></linearGradient><path d="M26.6 9h1.2v1.1h-1.2z" fill="url(#Q)"/><defs ><path id="S" d="M24.8 30.5c.8-.5 1.3-1.4 1.3-2.3 0-1.6-1.3-2.8-2.9-2.8s-2.9 1.3-2.9 2.8c0 1 .5 1.8 1.3 2.3-1.4.5-2.4 1.8-2.4 3.3V35h1.2v-1.1c0-1.2.9-2.2 2.2-2.4h1.5a2.48 2.48 0 0 1 2.2 2.4V35h1.2v-1.1c-.3-1.6-1.3-2.9-2.7-3.4zm-1.7-.6c-1 0-1.7-.8-1.7-1.7s.8-1.7 1.7-1.7c1 0 1.7.8 1.7 1.7.1 1-.7 1.7-1.7 1.7z"/></defs></svg>